# xmcd
#
# Track frame offsets: 
#        150
#        12480
#        23121
#        33695
#        44851
#        57739
#        68993
#        81180
#        93400
#        105050
#        117499
#        128804
#        139057
#        151036
#        163376
#        174238
#        186082
#        194797
#        205757
#        218377
#        227872
#        239042
#        249248
#        259648
#
# Disc length: 3579 seconds
#
# Revision: 3
# Processed by: cddbd v1.5.1PL2 Copyright (c) Steve Scherf et al.
# Submitted via: ExactAudioCopy v0.90b4
#
DISCID=5a0df918
DTITLE=Maddox Brothers And Rose - The Most Colorful Hillbilly Band In 
DTITLE=America - CD2
DYEAR=1998
DGENRE=
TTITLE0=Beautiful Bouquet
TTITLE1=A Kiss From Your Lips
TTITLE2=My Child Has A Billy Goat
TTITLE3=The Time Is Spring
TTITLE4=Breathless Love
TTITLE5=Hasty Baby
TTITLE6=There's No Right Way To Do Me Wrong
TTITLE7=The Birthday Card Song
TTITLE8=You Won't Believe This
TTITLE9=Forever Yours
TTITLE10=I Could Never Stop Loving You
TTITLE11=Fountain Of Youth
TTITLE12=Marry Me Again
TTITLE13=Poor Little Heartbroken Rose
TTITLE14=I Wonder If I Can Lose The Blues This Way
TTITLE15=Waltz Of The Pines
TTITLE16=I've Got Four Big Brothers (To Look After Me)
TTITLE17=I Gotta Go Get My Baby
TTITLE18=A Rusty Old Halo
TTITLE19=No More Time
TTITLE20=Wild Wild Young Men
TTITLE21=The Hoot-Owl Melody
TTITLE22=Was There A Teardrop
TTITLE23=I'm Gonna Be Loved Tonight
EXTD=
EXTT0=
EXTT1=
EXTT2=
EXTT3=
EXTT4=
EXTT5=
EXTT6=
EXTT7=
EXTT8=
EXTT9=
EXTT10=
EXTT11=
EXTT12=
EXTT13=
EXTT14=
EXTT15=
EXTT16=
EXTT17=
EXTT18=
EXTT19=
EXTT20=
EXTT21=
EXTT22=
EXTT23=
PLAYORDER=
